<?xml version="1.0" standalone="no"?>
<!DOCTYPE svg PUBLIC "-//W3C//DTD SVG 20010904//EN"
 "http://www.w3.org/TR/2001/REC-SVG-20010904/DTD/svg10.dtd">
<svg version="1.0" xmlns="http://www.w3.org/2000/svg"
 width="800.000000pt" height="800.000000pt" viewBox="0 0 800.000000 800.000000"
 preserveAspectRatio="xMidYMid meet">

<g transform="translate(0.000000,800.000000) scale(0.100000,-0.100000)"
fill="#000000" stroke="none">
<path d="M2703 5750 c-67 -41 -64 24 -61 -1061 l3 -981 37 -34 c33 -29 45 -34
88 -34 43 0 55 5 88 34 l37 34 5 806 5 806 365 -365 c250 -250 375 -368 398
-376 70 -23 73 -21 470 374 l372 372 0 -483 0 -482 -448 0 c-499 0 -509 -1
-636 -68 -88 -46 -199 -154 -243 -237 -55 -104 -77 -204 -70 -320 9 -163 63
-283 177 -395 67 -66 141 -112 235 -146 46 -17 99 -19 620 -24 562 -5 571 -5
626 -28 68 -27 139 -93 176 -164 25 -47 28 -63 28 -148 0 -78 -4 -103 -23
-141 -36 -74 -87 -125 -160 -161 l-67 -33 -767 -5 c-759 -5 -767 -5 -795 -26
-55 -41 -69 -112 -33 -171 40 -66 1 -63 832 -63 824 0 817 0 942 60 134 64
256 200 306 341 31 89 39 250 16 338 -26 101 -73 186 -147 264 -76 81 -151
130 -253 166 l-71 25 -570 6 -570 5 -57 28 c-65 32 -115 84 -155 159 -24 46
-28 64 -28 143 0 78 4 97 28 147 35 71 110 140 183 167 52 20 75 21 492 21
l437 0 -2 -83 c-3 -181 35 -285 141 -385 91 -85 150 -107 286 -106 96 0 111 2
171 31 301 140 335 546 62 734 -76 52 -142 69 -273 69 -88 0 -119 3 -123 13
-3 7 -5 305 -6 661 -1 716 3 676 -64 716 -32 20 -77 25 -109 12 -10 -4 -214
-203 -453 -442 l-436 -434 -432 432 c-238 237 -445 436 -460 442 -42 15 -78
12 -114 -10z m2317 -1672 c57 -39 75 -72 75 -138 0 -90 -53 -149 -143 -158
-60 -5 -122 24 -152 73 -19 32 -39 212 -26 234 5 7 47 11 110 11 90 0 107 -3
136 -22z"/>
</g>
</svg>
